ffmpeg started on 2025-06-04 at 20:01:24
Report written to "D:\Convert\FFMetrics\reports\psnr_report-6.txt"
Log level: 32
Command line:
ffmpeg -hide_banner -nostdin -i "G:\\\xc0\xed\xe8\xec\xe5\\\xce\xed\xe3\xee\xe8\xed\xe3\xe8\\!_36_\xce\xf1\xe5\xed\xfc_2024\\DreamCast\\\xc3\xf0\xe8\xe1\xed\xee\xe9 \xf9\xe5\xed\xee\xea\\[DC] Kinoko Inu - 02_Telegram_HEVC.mkv" -i "G:\\\xc0\xed\xe8\xec\xe5\\\xce\xed\xe3\xee\xe8\xed\xe3\xe8\\!_36_\xce\xf1\xe5\xed\xfc_2024\\DreamCast\\\xc3\xf0\xe8\xe1\xed\xee\xe9 \xf9\xe5\xed\xee\xea\\[DC] Kinoko Inu - 02_Telegram.mp4" -lavfi "[0:v]settb=AVTB,setpts=PTS-STARTPTS,format=pix_fmts=yuv420p10,fps=24000/1001,scale=1920:1080:flags=bicubic[main];[1:v]settb=AVTB,setpts=PTS-STARTPTS,format=pix_fmts=yuv420p,fps=24000/1001,scale=1920:1080:flags=bicubic[ref];[main][ref]psnr=eof_action=endall:stats_file='D\\:/Convert/FFMetrics/logs/psnr_logfile-6.txt'" -f null -
Input #0, matroska,webm, from 'G:\Аниме\Онгоинги\!_36_Осень_2024\DreamCast\Грибной щенок\[DC] Kinoko Inu - 02_Telegram_HEVC.mkv':
  Metadata:
    COMPATIBLE_BRANDS: isomiso2avc1mp41
    MAJOR_BRAND     : isom
    MINOR_VERSION   : 512
    ENCODER         : Lavf61.7.100
  Duration: 00:23:51.72, start: -0.021000, bitrate: 892 kb/s
  Stream #0:0: Video: hevc (Main 10), yuv420p10le(tv, bt709, progressive), 1920x1080 [SAR 1:1 DAR 16:9], 23.98 fps, 23.98 tbr, 1k tbn (default)
      Metadata:
        HANDLER_NAME    : VideoHandler
        VENDOR_ID       : [0][0][0][0]
        ENCODER         : Lavc61.19.100 libx265
        BPS             : 695836
        DURATION        : 00:23:51.554708333
        NUMBER_OF_FRAMES: 34323
        NUMBER_OF_BYTES : 124516015
        _STATISTICS_WRITING_APP: mkvpropedit v66.0.0 ('Josie') 64-bit
        _STATISTICS_WRITING_DATE_UTC: 2025-05-30 09:42:58
        _STATISTICS_TAGS: BPS DURATION NUMBER_OF_FRAMES NUMBER_OF_BYTES
  Stream #0:1: Audio: aac (LC), 48000 Hz, stereo, fltp (default)
      Metadata:
        HANDLER_NAME    : SoundHandler
        VENDOR_ID       : [0][0][0][0]
        ENCODER         : Lavc61.19.100 aac
        BPS             : 193079
        DURATION        : 00:23:51.722000000
        NUMBER_OF_FRAMES: 67113
        NUMBER_OF_BYTES : 34554497
        _STATISTICS_WRITING_APP: mkvpropedit v66.0.0 ('Josie') 64-bit
        _STATISTICS_WRITING_DATE_UTC: 2025-05-30 09:42:58
        _STATISTICS_TAGS: BPS DURATION NUMBER_OF_FRAMES NUMBER_OF_BYTES
Input #1, mov,mp4,m4a,3gp,3g2,mj2, from 'G:\Аниме\Онгоинги\!_36_Осень_2024\DreamCast\Грибной щенок\[DC] Kinoko Inu - 02_Telegram.mp4':
  Metadata:
    major_brand     : isom
    minor_version   : 512
    compatible_brands: isomiso2avc1mp41
    encoder         : Lavf61.1.100
  Duration: 00:23:51.69, start: 0.000000, bitrate: 3760 kb/s
  Stream #1:0[0x1](und): Video: h264 (High) (avc1 / 0x31637661), yuv420p(tv, bt709, progressive), 1920x1080 [SAR 1:1 DAR 16:9], 3612 kb/s, 23.98 fps, 23.98 tbr, 24k tbn (default)
      Metadata:
        handler_name    : VideoHandler
        vendor_id       : [0][0][0][0]
        encoder         : Lavc61.3.100 h264_qsv
  Stream #1:1[0x2](und): Audio: aac (HE-AACv2) (mp4a / 0x6134706D), 48000 Hz, stereo, fltp, 144 kb/s (default)
      Metadata:
        handler_name    : SoundHandler
        vendor_id       : [0][0][0][0]
Stream mapping:
  Stream #0:0 (hevc) -> settb:default
  Stream #1:0 (h264) -> settb:default
  psnr:default -> Stream #0:0 (wrapped_avframe)
  Stream #0:1 -> #0:1 (aac (native) -> pcm_s16le (native))
Output #0, null, to 'pipe:':
  Metadata:
    COMPATIBLE_BRANDS: isomiso2avc1mp41
    MAJOR_BRAND     : isom
    MINOR_VERSION   : 512
    encoder         : Lavf61.7.100
  Stream #0:0: Video: wrapped_avframe, yuv420p10le(tv, bt709, progressive), 1920x1080 [SAR 1:1 DAR 16:9], q=2-31, 200 kb/s, 23.98 fps, 23.98 tbn
      Metadata:
        encoder         : Lavc61.19.100 wrapped_avframe
  Stream #0:1: Audio: pcm_s16le, 48000 Hz, stereo, s16, 1536 kb/s (default)
      Metadata:
        HANDLER_NAME    : SoundHandler
        VENDOR_ID       : [0][0][0][0]
        _STATISTICS_TAGS: BPS DURATION NUMBER_OF_FRAMES NUMBER_OF_BYTES
        BPS             : 193079
        DURATION        : 00:23:51.722000000
        NUMBER_OF_FRAMES: 67113
        NUMBER_OF_BYTES : 34554497
        _STATISTICS_WRITING_APP: mkvpropedit v66.0.0 ('Josie') 64-bit
        _STATISTICS_WRITING_DATE_UTC: 2025-05-30 09:42:58
        encoder         : Lavc61.19.100 pcm_s16le
frame=  171 fps=0.0 q=-0.0 size=N/A time=00:00:07.13 bitrate=N/A speed=13.9x    frame=  420 fps=404 q=-0.0 size=N/A time=00:00:17.51 bitrate=N/A speed=16.8x    frame=  671 fps=433 q=-0.0 size=N/A time=00:00:27.98 bitrate=N/A speed=18.1x    frame=  948 fps=458 q=-0.0 size=N/A time=00:00:39.53 bitrate=N/A speed=19.1x    frame= 1232 fps=478 q=-0.0 size=N/A time=00:00:51.42 bitrate=N/A speed=19.9x    frame= 1509 fps=486 q=-0.0 size=N/A time=00:01:02.93 bitrate=N/A speed=20.3x    frame= 1767 fps=487 q=-0.0 size=N/A time=00:01:13.69 bitrate=N/A speed=20.3x    frame= 2046 fps=493 q=-0.0 size=N/A time=00:01:25.33 bitrate=N/A speed=20.6x    frame= 2298 fps=494 q=-0.0 size=N/A time=00:01:35.84 bitrate=N/A speed=20.6x    frame= 2558 fps=494 q=-0.0 size=N/A time=00:01:46.68 bitrate=N/A speed=20.6x    frame= 2830 fps=498 q=-0.0 size=N/A time=00:01:58.03 bitrate=N/A speed=20.8x    frame= 3079 fps=496 q=-0.0 size=N/A time=00:02:08.41 bitrate=N/A speed=20.7x    frame= 3326 fps=495 q=-0.0 size=N/A time=00:02:18.72 bitrate=N/A speed=20.7x    frame= 3573 fps=494 q=-0.0 size=N/A time=00:02:29.02 bitrate=N/A speed=20.6x    frame= 3829 fps=494 q=-0.0 size=N/A time=00:02:39.70 bitrate=N/A speed=20.6x    frame= 4058 fps=490 q=-0.0 size=N/A time=00:02:49.25 bitrate=N/A speed=20.5x    frame= 4252 fps=484 q=-0.0 size=N/A time=00:02:57.34 bitrate=N/A speed=20.2x    frame= 4452 fps=479 q=-0.0 size=N/A time=00:03:05.68 bitrate=N/A speed=  20x    frame= 4689 fps=478 q=-0.0 size=N/A time=00:03:15.57 bitrate=N/A speed=19.9x    frame= 4891 fps=473 q=-0.0 size=N/A time=00:03:23.99 bitrate=N/A speed=19.7x    frame= 5119 fps=472 q=-0.0 size=N/A time=00:03:33.50 bitrate=N/A speed=19.7x    frame= 5357 fps=471 q=-0.0 size=N/A time=00:03:43.43 bitrate=N/A speed=19.7x    frame= 5581 fps=470 q=-0.0 size=N/A time=00:03:52.77 bitrate=N/A speed=19.6x    frame= 5810 fps=469 q=-0.0 size=N/A time=00:04:02.32 bitrate=N/A speed=19.6x    frame= 6016 fps=466 q=-0.0 size=N/A time=00:04:10.91 bitrate=N/A speed=19.4x    frame= 6229 fps=464 q=-0.0 size=N/A time=00:04:19.80 bitrate=N/A speed=19.4x    frame= 6479 fps=465 q=-0.0 size=N/A time=00:04:30.22 bitrate=N/A speed=19.4x    frame= 6746 fps=467 q=-0.0 size=N/A time=00:04:41.36 bitrate=N/A speed=19.5x    frame= 7002 fps=467 q=-0.0 size=N/A time=00:04:52.04 bitrate=N/A speed=19.5x    frame= 7268 fps=469 q=-0.0 size=N/A time=00:05:03.13 bitrate=N/A speed=19.6x    frame= 7529 fps=470 q=-0.0 size=N/A time=00:05:14.02 bitrate=N/A speed=19.6x    frame= 7788 fps=472 q=-0.0 size=N/A time=00:05:24.82 bitrate=N/A speed=19.7x    frame= 8060 fps=473 q=-0.0 size=N/A time=00:05:36.16 bitrate=N/A speed=19.7x    frame= 8320 fps=474 q=-0.0 size=N/A time=00:05:47.01 bitrate=N/A speed=19.8x    frame= 8573 fps=474 q=-0.0 size=N/A time=00:05:57.56 bitrate=N/A speed=19.8x    frame= 8838 fps=476 q=-0.0 size=N/A time=00:06:08.61 bitrate=N/A speed=19.8x    frame= 9094 fps=476 q=-0.0 size=N/A time=00:06:19.29 bitrate=N/A speed=19.9x    frame= 9306 fps=474 q=-0.0 size=N/A time=00:06:28.13 bitrate=N/A speed=19.8x    frame= 9481 fps=471 q=-0.0 size=N/A time=00:06:35.43 bitrate=N/A speed=19.7x    frame= 9739 fps=472 q=-0.0 size=N/A time=00:06:46.19 bitrate=N/A speed=19.7x    frame=10009 fps=473 q=-0.0 size=N/A time=00:06:57.45 bitrate=N/A speed=19.7x    frame=10262 fps=473 q=-0.0 size=N/A time=00:07:08.01 bitrate=N/A speed=19.7x    frame=10532 fps=474 q=-0.0 size=N/A time=00:07:19.27 bitrate=N/A speed=19.8x    frame=10793 fps=475 q=-0.0 size=N/A time=00:07:30.19 bitrate=N/A speed=19.8x    frame=11026 fps=475 q=-0.0 size=N/A time=00:07:39.87 bitrate=N/A speed=19.8x    frame=11291 fps=476 q=-0.0 size=N/A time=00:07:50.92 bitrate=N/A speed=19.8x    frame=11555 fps=476 q=-0.0 size=N/A time=00:08:01.93 bitrate=N/A speed=19.9x    frame=11815 fps=477 q=-0.0 size=N/A time=00:08:12.78 bitrate=N/A speed=19.9x    frame=12064 fps=477 q=-0.0 size=N/A time=00:08:23.16 bitrate=N/A speed=19.9x    frame=12320 fps=477 q=-0.0 size=N/A time=00:08:33.84 bitrate=N/A speed=19.9x    frame=12582 fps=478 q=-0.0 size=N/A time=00:08:44.77 bitrate=N/A speed=19.9x    frame=12839 fps=478 q=-0.0 size=N/A time=00:08:55.49 bitrate=N/A speed=  20x    frame=13092 fps=479 q=-0.0 size=N/A time=00:09:06.04 bitrate=N/A speed=  20x    frame=13368 fps=480 q=-0.0 size=N/A time=00:09:17.55 bitrate=N/A speed=  20x    frame=13642 fps=481 q=-0.0 size=N/A time=00:09:28.98 bitrate=N/A speed=20.1x    frame=13911 fps=481 q=-0.0 size=N/A time=00:09:40.20 bitrate=N/A speed=20.1x    frame=14170 fps=482 q=-0.0 size=N/A time=00:09:51.00 bitrate=N/A speed=20.1x    frame=14445 fps=483 q=-0.0 size=N/A time=00:10:02.47 bitrate=N/A speed=20.1x    frame=14698 fps=483 q=-0.0 size=N/A time=00:10:13.02 bitrate=N/A speed=20.1x    frame=14963 fps=483 q=-0.0 size=N/A time=00:10:24.08 bitrate=N/A speed=20.2x    frame=15234 fps=484 q=-0.0 size=N/A time=00:10:35.38 bitrate=N/A speed=20.2x    frame=15509 fps=485 q=-0.0 size=N/A time=00:10:46.85 bitrate=N/A speed=20.2x    frame=15777 fps=485 q=-0.0 size=N/A time=00:10:58.03 bitrate=N/A speed=20.2x    frame=16039 fps=486 q=-0.0 size=N/A time=00:11:08.95 bitrate=N/A speed=20.3x    frame=16242 fps=484 q=-0.0 size=N/A time=00:11:17.42 bitrate=N/A speed=20.2x    frame=16455 fps=483 q=-0.0 size=N/A time=00:11:26.31 bitrate=N/A speed=20.2x    frame=16708 fps=483 q=-0.0 size=N/A time=00:11:36.86 bitrate=N/A speed=20.2x    frame=16956 fps=483 q=-0.0 size=N/A time=00:11:47.20 bitrate=N/A speed=20.2x    frame=17208 fps=484 q=-0.0 size=N/A time=00:11:57.71 bitrate=N/A speed=20.2x    frame=17461 fps=483 q=-0.0 size=N/A time=00:12:08.26 bitrate=N/A speed=20.2x    frame=17714 fps=484 q=-0.0 size=N/A time=00:12:18.82 bitrate=N/A speed=20.2x    frame=17973 fps=484 q=-0.0 size=N/A time=00:12:29.62 bitrate=N/A speed=20.2x    frame=18199 fps=483 q=-0.0 size=N/A time=00:12:39.04 bitrate=N/A speed=20.2x    frame=18392 fps=482 q=-0.0 size=N/A time=00:12:47.09 bitrate=N/A speed=20.1x    frame=18637 fps=482 q=-0.0 size=N/A time=00:12:57.31 bitrate=N/A speed=20.1x    frame=18893 fps=482 q=-0.0 size=N/A time=00:13:07.99 bitrate=N/A speed=20.1x    frame=19146 fps=482 q=-0.0 size=N/A time=00:13:18.54 bitrate=N/A speed=20.1x    frame=19397 fps=482 q=-0.0 size=N/A time=00:13:29.01 bitrate=N/A speed=20.1x    frame=19640 fps=482 q=-0.0 size=N/A time=00:13:39.15 bitrate=N/A speed=20.1x    frame=19862 fps=481 q=-0.0 size=N/A time=00:13:48.41 bitrate=N/A speed=20.1x    frame=20093 fps=481 q=-0.0 size=N/A time=00:13:58.04 bitrate=N/A speed=20.1x    frame=20349 fps=481 q=-0.0 size=N/A time=00:14:08.72 bitrate=N/A speed=20.1x    frame=20592 fps=481 q=-0.0 size=N/A time=00:14:18.85 bitrate=N/A speed=20.1x    frame=20816 fps=480 q=-0.0 size=N/A time=00:14:28.20 bitrate=N/A speed=  20x    frame=21061 fps=480 q=-0.0 size=N/A time=00:14:38.41 bitrate=N/A speed=  20x    frame=21304 fps=480 q=-0.0 size=N/A time=00:14:48.55 bitrate=N/A speed=  20x    frame=21547 fps=480 q=-0.0 size=N/A time=00:14:58.68 bitrate=N/A speed=  20x    frame=21790 fps=480 q=-0.0 size=N/A time=00:15:08.82 bitrate=N/A speed=  20x    frame=22040 fps=480 q=-0.0 size=N/A time=00:15:19.25 bitrate=N/A speed=  20x    frame=22285 fps=480 q=-0.0 size=N/A time=00:15:29.47 bitrate=N/A speed=  20x    frame=22513 fps=479 q=-0.0 size=N/A time=00:15:38.97 bitrate=N/A speed=  20x    frame=22757 fps=479 q=-0.0 size=N/A time=00:15:49.15 bitrate=N/A speed=  20x    frame=22932 fps=478 q=-0.0 size=N/A time=00:15:56.45 bitrate=N/A speed=19.9x    frame=23156 fps=477 q=-0.0 size=N/A time=00:16:05.79 bitrate=N/A speed=19.9x    frame=23355 fps=476 q=-0.0 size=N/A time=00:16:14.09 bitrate=N/A speed=19.9x    frame=23564 fps=476 q=-0.0 size=N/A time=00:16:22.81 bitrate=N/A speed=19.8x    frame=23791 fps=475 q=-0.0 size=N/A time=00:16:32.28 bitrate=N/A speed=19.8x    frame=24032 fps=475 q=-0.0 size=N/A time=00:16:42.33 bitrate=N/A speed=19.8x    frame=24274 fps=475 q=-0.0 size=N/A time=00:16:52.42 bitrate=N/A speed=19.8x    frame=24470 fps=474 q=-0.0 size=N/A time=00:17:00.60 bitrate=N/A speed=19.8x    frame=24724 fps=474 q=-0.0 size=N/A time=00:17:11.19 bitrate=N/A speed=19.8x    frame=25000 fps=475 q=-0.0 size=N/A time=00:17:22.70 bitrate=N/A speed=19.8x    frame=25259 fps=475 q=-0.0 size=N/A time=00:17:33.51 bitrate=N/A speed=19.8x    frame=25521 fps=476 q=-0.0 size=N/A time=00:17:44.43 bitrate=N/A speed=19.8x    frame=25783 fps=476 q=-0.0 size=N/A time=00:17:55.36 bitrate=N/A speed=19.8x    frame=26011 fps=476 q=-0.0 size=N/A time=00:18:04.87 bitrate=N/A speed=19.8x    frame=26266 fps=476 q=-0.0 size=N/A time=00:18:15.51 bitrate=N/A speed=19.8x    frame=26523 fps=476 q=-0.0 size=N/A time=00:18:26.23 bitrate=N/A speed=19.9x    frame=26782 fps=476 q=-0.0 size=N/A time=00:18:37.03 bitrate=N/A speed=19.9x    frame=27001 fps=476 q=-0.0 size=N/A time=00:18:46.16 bitrate=N/A speed=19.8x    frame=27249 fps=476 q=-0.0 size=N/A time=00:18:56.51 bitrate=N/A speed=19.8x    frame=27481 fps=476 q=-0.0 size=N/A time=00:19:06.18 bitrate=N/A speed=19.8x    frame=27732 fps=476 q=-0.0 size=N/A time=00:19:16.65 bitrate=N/A speed=19.8x    frame=27984 fps=476 q=-0.0 size=N/A time=00:19:27.16 bitrate=N/A speed=19.8x    frame=28247 fps=476 q=-0.0 size=N/A time=00:19:38.13 bitrate=N/A speed=19.9x    frame=28512 fps=476 q=-0.0 size=N/A time=00:19:49.18 bitrate=N/A speed=19.9x    frame=28726 fps=476 q=-0.0 size=N/A time=00:19:58.11 bitrate=N/A speed=19.8x    frame=28964 fps=476 q=-0.0 size=N/A time=00:20:08.04 bitrate=N/A speed=19.8x    frame=29200 fps=476 q=-0.0 size=N/A time=00:20:17.88 bitrate=N/A speed=19.8x    frame=29449 fps=476 q=-0.0 size=N/A time=00:20:28.26 bitrate=N/A speed=19.8x    frame=29690 fps=476 q=-0.0 size=N/A time=00:20:38.32 bitrate=N/A speed=19.8x    frame=29926 fps=475 q=-0.0 size=N/A time=00:20:48.16 bitrate=N/A speed=19.8x    frame=30188 fps=476 q=-0.0 size=N/A time=00:20:59.09 bitrate=N/A speed=19.8x    frame=30439 fps=476 q=-0.0 size=N/A time=00:21:09.55 bitrate=N/A speed=19.8x    frame=30698 fps=476 q=-0.0 size=N/A time=00:21:20.36 bitrate=N/A speed=19.9x    frame=30960 fps=476 q=-0.0 size=N/A time=00:21:31.29 bitrate=N/A speed=19.9x    frame=31213 fps=476 q=-0.0 size=N/A time=00:21:41.84 bitrate=N/A speed=19.9x    frame=31453 fps=476 q=-0.0 size=N/A time=00:21:51.85 bitrate=N/A speed=19.9x    frame=31692 fps=476 q=-0.0 size=N/A time=00:22:01.82 bitrate=N/A speed=19.9x    frame=31932 fps=476 q=-0.0 size=N/A time=00:22:11.83 bitrate=N/A speed=19.9x    frame=32189 fps=476 q=-0.0 size=N/A time=00:22:22.54 bitrate=N/A speed=19.9x    frame=32428 fps=476 q=-0.0 size=N/A time=00:22:32.51 bitrate=N/A speed=19.9x    frame=32692 fps=476 q=-0.0 size=N/A time=00:22:43.52 bitrate=N/A speed=19.9x    frame=32959 fps=477 q=-0.0 size=N/A time=00:22:54.66 bitrate=N/A speed=19.9x    frame=33188 fps=477 q=-0.0 size=N/A time=00:23:04.21 bitrate=N/A speed=19.9x    frame=33452 fps=477 q=-0.0 size=N/A time=00:23:15.22 bitrate=N/A speed=19.9x    frame=33677 fps=477 q=-0.0 size=N/A time=00:23:24.61 bitrate=N/A speed=19.9x    frame=33906 fps=476 q=-0.0 size=N/A time=00:23:34.16 bitrate=N/A speed=19.9x    frame=34105 fps=476 q=-0.0 size=N/A time=00:23:42.46 bitrate=N/A speed=19.8x    [Parsed_psnr_10 @ 0000028325899d40] PSNR y:48.782903 u:50.659735 v:51.183105 average:49.383951 min:39.945127 max:inf
[out#0/null @ 0000028324f2ffc0] video:14748KiB audio:268452KiB subtitle:0KiB other streams:0KiB global headers:0KiB muxing overhead: unknown
frame=34323 fps=476 q=-0.0 Lsize=N/A time=00:23:51.55 bitrate=N/A speed=19.9x    
